<?xml version="1.0" encoding="UTF-8" standalone="no"?>
<!-- Created with Inkscape (http://www.inkscape.org/) -->

<svg
   width="32"
   height="32"
   viewBox="0 0 8.4666665 8.4666669"
   version="1.1"
   id="svg2112"
   inkscape:version="1.1 (c68e22c387, 2021-05-23)"
   sodipodi:docname="puzzloop-normal-track-4.svg"
   inkscape:export-filename="C:\Users\LAED2\AppData\Roaming\Mindustry\mods\cheatdustry-135\sprites\blocks\fun\puzzloop-normal-track-3.png"
   inkscape:export-xdpi="96.000008"
   inkscape:export-ydpi="96.000008"
   xmlns:inkscape="http://www.inkscape.org/namespaces/inkscape"
   xmlns:sodipodi="http://sodipodi.sourceforge.net/DTD/sodipodi-0.dtd"
   xmlns="http://www.w3.org/2000/svg"
   xmlns:svg="http://www.w3.org/2000/svg">
  <sodipodi:namedview
     id="namedview2114"
     pagecolor="#ffffff"
     bordercolor="#666666"
     borderopacity="1.0"
     inkscape:pageshadow="2"
     inkscape:pageopacity="0.0"
     inkscape:pagecheckerboard="0"
     inkscape:document-units="px"
     showgrid="false"
     units="px"
     inkscape:snap-page="true"
     inkscape:snap-center="true"
     inkscape:snap-nodes="false"
     inkscape:zoom="12.22963"
     inkscape:cx="19.91066"
     inkscape:cy="8.1359782"
     inkscape:window-width="1920"
     inkscape:window-height="1017"
     inkscape:window-x="-8"
     inkscape:window-y="-8"
     inkscape:window-maximized="1"
     inkscape:current-layer="layer1" />
  <defs
     id="defs2109" />
  <g
     inkscape:label="레이어 1"
     inkscape:groupmode="layer"
     id="layer1">
    <path
       id="path2195"
       style="fill:#999999;fill-opacity:1;fill-rule:evenodd;stroke-width:0.661461;stroke-miterlimit:10;-inkscape-stroke:none;stop-color:#000000"
       d="M 8.4666666,6.8791666 A 6.8791666,6.8791666 0 0 1 1.5875,0 6.8791666,6.8791666 0 0 1 8.4666666,-6.8791666 6.8791666,6.8791666 0 0 1 15.345833,0 6.8791666,6.8791666 0 0 1 8.4666666,6.8791666 Z m 0,-5.2916666 A 1.5875,1.5875 0 0 0 10.054167,0 1.5875,1.5875 0 0 0 8.4666666,-1.5875 1.5875,1.5875 0 0 0 6.8791666,0 a 1.5875,1.5875 0 0 0 1.5875,1.5875 z" />
    <path
       id="path2195-7"
       style="fill:#999999;fill-opacity:1;fill-rule:evenodd;stroke-width:0.661461;stroke-miterlimit:10;-inkscape-stroke:none;stop-color:#000000"
       d="M 8.4666669,15.345833 A 6.8791666,6.8791666 0 0 1 1.5875002,8.4666667 6.8791666,6.8791666 0 0 1 8.4666669,1.5875001 6.8791666,6.8791666 0 0 1 15.345833,8.4666667 6.8791666,6.8791666 0 0 1 8.4666669,15.345833 Z m 0,-5.291666 a 1.5875,1.5875 0 0 0 1.5875001,-1.5875003 1.5875,1.5875 0 0 0 -1.5875001,-1.5875 1.5875,1.5875 0 0 0 -1.5875,1.5875 1.5875,1.5875 0 0 0 1.5875,1.5875003 z" />
    <path
       id="circle2295-6"
       style="fill:#ffffff;fill-opacity:1;fill-rule:evenodd;stroke-width:2.50001;stroke-miterlimit:10;-inkscape-stroke:none;stop-color:#000000"
       d="M 48.478516 14.554688 A 21.999999 21.999999 0 0 1 47.09375 15.996094 A 21.999999 21.999999 0 0 1 54 32 A 21.999999 21.999999 0 0 1 32 54 A 21.999999 21.999999 0 0 1 10 32 A 21.999999 21.999999 0 0 1 16.916016 16.005859 A 21.999999 21.999999 0 0 1 15.523438 14.558594 A 24 24 0 0 0 8 32 A 24 24 0 0 0 32 56 A 24 24 0 0 0 56 32 A 24 24 0 0 0 48.478516 14.554688 z "
       transform="scale(0.26458333)" />
    <path
       id="circle2337-3"
       style="fill:#ffffff;fill-opacity:1;fill-rule:evenodd;stroke-width:0.661461;stroke-miterlimit:10;-inkscape-stroke:none;stop-color:#000000"
       d="M 8.4666669,11.1125 A 2.6458332,2.6458332 0 0 1 5.8208335,8.4666667 2.6458332,2.6458332 0 0 1 8.4666669,5.8208334 2.6458332,2.6458332 0 0 1 11.1125,8.4666667 2.6458332,2.6458332 0 0 1 8.4666669,11.1125 Z m 0,-0.529167 A 2.1166667,2.1166667 0 0 0 10.583333,8.4666667 2.1166667,2.1166667 0 0 0 8.4666669,6.3500001 2.1166667,2.1166667 0 0 0 6.3500001,8.4666667 2.1166667,2.1166667 0 0 0 8.4666669,10.583333 Z" />
    <path
       id="circle2347-1"
       style="fill:#440066;fill-opacity:1;fill-rule:evenodd;stroke-width:0.661461;stroke-miterlimit:10;-inkscape-stroke:none;stop-color:#000000"
       d="M 8.4666669,13.758333 A 5.2916663,5.2916663 0 0 1 3.1750002,8.4666667 5.2916663,5.2916663 0 0 1 8.4666669,3.1750001 5.2916663,5.2916663 0 0 1 13.758333,8.4666667 5.2916663,5.2916663 0 0 1 8.4666669,13.758333 Z m 0,-2.116666 a 3.175,3.175 0 0 0 3.1750001,-3.1750003 3.175,3.175 0 0 0 -3.1750001,-3.175 3.175,3.175 0 0 0 -3.1750001,3.175 3.175,3.175 0 0 0 3.1750001,3.1750003 z" />
    <path
       id="circle2295"
       style="fill:#ffffff;fill-opacity:1;fill-rule:evenodd;stroke-width:2.50001;stroke-miterlimit:10;-inkscape-stroke:none;stop-color:#000000"
       d="M 32 -24 A 24 24 0 0 0 8 0 A 24 24 0 0 0 15.523438 17.441406 A 21.999999 21.999999 0 0 1 16.916016 15.994141 A 21.999999 21.999999 0 0 1 10 0 A 21.999999 21.999999 0 0 1 32 -22 A 21.999999 21.999999 0 0 1 54 0 A 21.999999 21.999999 0 0 1 47.095703 16 A 21.999999 21.999999 0 0 1 48.486328 17.431641 A 24 24 0 0 0 56 0 A 24 24 0 0 0 32 -24 z "
       transform="scale(0.26458333)" />
    <path
       id="circle2337"
       style="fill:#ffffff;fill-opacity:1;fill-rule:evenodd;stroke-width:0.661461;stroke-miterlimit:10;-inkscape-stroke:none;stop-color:#000000"
       d="M 8.4666666,2.6458333 A 2.6458332,2.6458332 0 0 1 5.8208333,0 2.6458332,2.6458332 0 0 1 8.4666666,-2.6458333 2.6458332,2.6458332 0 0 1 11.1125,0 2.6458332,2.6458332 0 0 1 8.4666666,2.6458333 Z m 0,-0.5291667 A 2.1166667,2.1166667 0 0 0 10.583333,0 2.1166667,2.1166667 0 0 0 8.4666666,-2.1166666 2.1166667,2.1166667 0 0 0 6.3499999,0 2.1166667,2.1166667 0 0 0 8.4666666,2.1166666 Z" />
    <path
       id="circle2347"
       style="fill:#440066;fill-opacity:1;fill-rule:evenodd;stroke-width:0.661461;stroke-miterlimit:10;-inkscape-stroke:none;stop-color:#000000"
       d="M 8.4666666,5.2916666 A 5.2916663,5.2916663 0 0 1 3.175,0 5.2916663,5.2916663 0 0 1 8.4666666,-5.2916666 5.2916663,5.2916663 0 0 1 13.758333,0 5.2916663,5.2916663 0 0 1 8.4666666,5.2916666 Z m 0,-2.1166666 A 3.175,3.175 0 0 0 11.641667,0 3.175,3.175 0 0 0 8.4666666,-3.175 3.175,3.175 0 0 0 5.2916666,0 a 3.175,3.175 0 0 0 3.175,3.175 z" />
  </g>
</svg>
