<?xml version="1.0" encoding="UTF-8" standalone="no"?>
<!-- Created with Inkscape (http://www.inkscape.org/) -->

<svg
   width="32"
   height="32"
   viewBox="0 0 8.4666665 8.4666669"
   version="1.1"
   id="svg2112"
   inkscape:version="1.1 (c68e22c387, 2021-05-23)"
   sodipodi:docname="puzzloop-normal-track-3.svg"
   inkscape:export-filename="C:\Users\LAED2\AppData\Roaming\Mindustry\mods\cheatdustry-135\sprites\blocks\fun\puzzloop-normal-track-2.png"
   inkscape:export-xdpi="96.000008"
   inkscape:export-ydpi="96.000008"
   xmlns:inkscape="http://www.inkscape.org/namespaces/inkscape"
   xmlns:sodipodi="http://sodipodi.sourceforge.net/DTD/sodipodi-0.dtd"
   xmlns="http://www.w3.org/2000/svg"
   xmlns:svg="http://www.w3.org/2000/svg">
  <sodipodi:namedview
     id="namedview2114"
     pagecolor="#ffffff"
     bordercolor="#666666"
     borderopacity="1.0"
     inkscape:pageshadow="2"
     inkscape:pageopacity="0.0"
     inkscape:pagecheckerboard="0"
     inkscape:document-units="px"
     showgrid="false"
     units="px"
     inkscape:snap-page="true"
     inkscape:snap-center="true"
     inkscape:snap-nodes="false"
     inkscape:zoom="12.22963"
     inkscape:cx="16.476378"
     inkscape:cy="13.941551"
     inkscape:window-width="1920"
     inkscape:window-height="1017"
     inkscape:window-x="-8"
     inkscape:window-y="-8"
     inkscape:window-maximized="1"
     inkscape:current-layer="layer1" />
  <defs
     id="defs2109" />
  <g
     inkscape:label="레이어 1"
     inkscape:groupmode="layer"
     id="layer1">
    <path
       id="path3992"
       style="fill:#999999;fill-opacity:1;fill-rule:evenodd;stroke-width:0.661461;stroke-miterlimit:10;-inkscape-stroke:none;stop-color:#000000"
       d="M 8.4666668,-6.8791664 A 6.8791666,6.8791666 0 0 0 1.5875002,-1.5e-7 6.8791666,6.8791666 0 0 0 8.4666668,6.8791665 6.8791666,6.8791666 0 0 0 15.345833,-1.5e-7 6.8791666,6.8791666 0 0 0 8.4666668,-6.8791664 Z m 0,5.291666 A 1.5875,1.5875 0 0 1 10.054167,-1.5e-7 1.5875,1.5875 0 0 1 8.4666668,1.5874994 1.5875,1.5875 0 0 1 6.8791668,-1.5e-7 a 1.5875,1.5875 0 0 1 1.5875,-1.58750025 z" />
    <rect
       style="fill:#999999;fill-opacity:1;fill-rule:evenodd;stroke-width:0.661457;stroke-miterlimit:10;-inkscape-stroke:none;stop-color:#000000"
       id="rect2506"
       width="8.4666662"
       height="5.291667"
       x="4e-07"
       y="-6.8791671"
       transform="scale(1,-1)" />
    <path
       id="path2195"
       style="fill:#999999;fill-opacity:1;fill-rule:evenodd;stroke-width:0.661461;stroke-miterlimit:10;-inkscape-stroke:none;stop-color:#000000"
       d="M 8.466667,15.345833 A 6.8791666,6.8791666 0 0 1 1.5875004,8.4666667 6.8791666,6.8791666 0 0 1 8.466667,1.5875001 6.8791666,6.8791666 0 0 1 15.345833,8.4666667 6.8791666,6.8791666 0 0 1 8.466667,15.345833 Z m 0,-5.291666 a 1.5875,1.5875 0 0 0 1.5875,-1.5875003 1.5875,1.5875 0 0 0 -1.5875,-1.5875 1.5875,1.5875 0 0 0 -1.5875,1.5875 1.5875,1.5875 0 0 0 1.5875,1.5875003 z" />
    <path
       id="circle2295"
       style="fill:#ffffff;fill-opacity:1;fill-rule:evenodd;stroke-width:2.50001;stroke-miterlimit:10;-inkscape-stroke:none;stop-color:#000000"
       d="M 32 8 L 32 10 A 21.999999 21.999999 0 0 1 54 32 A 21.999999 21.999999 0 0 1 32 54 A 21.999999 21.999999 0 0 1 10 32 A 21.999999 21.999999 0 0 1 12.404297 22 L 10.195312 22 A 24 24 0 0 0 8 32 A 24 24 0 0 0 32 56 A 24 24 0 0 0 56 32 A 24 24 0 0 0 32 8 z "
       transform="scale(0.26458333)" />
    <path
       id="circle2337"
       style="fill:#ffffff;fill-opacity:1;fill-rule:evenodd;stroke-width:0.661461;stroke-miterlimit:10;-inkscape-stroke:none;stop-color:#000000"
       d="M 8.466667,11.1125 A 2.6458332,2.6458332 0 0 1 5.8208337,8.4666667 2.6458332,2.6458332 0 0 1 8.466667,5.8208334 2.6458332,2.6458332 0 0 1 11.1125,8.4666667 2.6458332,2.6458332 0 0 1 8.466667,11.1125 Z m 0,-0.529167 A 2.1166667,2.1166667 0 0 0 10.583333,8.4666667 2.1166667,2.1166667 0 0 0 8.466667,6.3500001 2.1166667,2.1166667 0 0 0 6.3500003,8.4666667 2.1166667,2.1166667 0 0 0 8.466667,10.583333 Z" />
    <path
       id="circle2347"
       style="fill:#440066;fill-opacity:1;fill-rule:evenodd;stroke-width:0.661461;stroke-miterlimit:10;-inkscape-stroke:none;stop-color:#000000"
       d="M 8.466667,13.758333 A 5.2916663,5.2916663 0 0 1 3.1750004,8.4666667 5.2916663,5.2916663 0 0 1 8.466667,3.1750001 5.2916663,5.2916663 0 0 1 13.758333,8.4666667 5.2916663,5.2916663 0 0 1 8.466667,13.758333 Z m 0,-2.116666 a 3.175,3.175 0 0 0 3.175,-3.1750003 3.175,3.175 0 0 0 -3.175,-3.175 3.175,3.175 0 0 0 -3.175,3.175 3.175,3.175 0 0 0 3.175,3.1750003 z" />
    <rect
       style="fill:#440066;fill-opacity:1;fill-rule:evenodd;stroke-width:0.661457;stroke-miterlimit:10;-inkscape-stroke:none;stop-color:#000000"
       id="rect2419"
       width="8.4666662"
       height="2.1166668"
       x="4e-07"
       y="-5.291667"
       transform="scale(1,-1)" />
    <rect
       style="fill:#ffffff;fill-opacity:1;fill-rule:evenodd;stroke-width:0.661456;stroke-miterlimit:10;-inkscape-stroke:none;stop-color:#000000"
       id="rect3817"
       width="2.9104166"
       height="0.5291667"
       x="1.3750001e-07"
       y="-6.3499999"
       transform="scale(1,-1)" />
    <path
       id="path3994"
       style="fill:#ffffff;fill-opacity:1;fill-rule:evenodd;stroke-width:2.50001;stroke-miterlimit:10;-inkscape-stroke:none;stop-color:#000000"
       d="M 32 -24 A 24 24 0 0 0 8 0 A 24 24 0 0 0 10.195312 10 L 12.404297 10 A 21.999999 21.999999 0 0 1 10 0 A 21.999999 21.999999 0 0 1 32 -22 A 21.999999 21.999999 0 0 1 54 0 A 21.999999 21.999999 0 0 1 32 22 L 32 24 A 24 24 0 0 0 56 0 A 24 24 0 0 0 32 -24 z "
       transform="scale(0.26458333)" />
    <path
       id="path3996"
       style="fill:#ffffff;fill-opacity:1;fill-rule:evenodd;stroke-width:0.661461;stroke-miterlimit:10;-inkscape-stroke:none;stop-color:#000000"
       d="M 8.4666668,-2.6458334 A 2.6458332,2.6458332 0 0 0 5.8208335,-1.5e-7 2.6458332,2.6458332 0 0 0 8.4666668,2.6458335 2.6458332,2.6458332 0 0 0 11.1125,-1.5e-7 2.6458332,2.6458332 0 0 0 8.4666668,-2.6458334 Z m 0,0.529167 A 2.1166667,2.1166667 0 0 1 10.583333,-1.5e-7 2.1166667,2.1166667 0 0 1 8.4666668,2.1166665 2.1166667,2.1166667 0 0 1 6.3500001,-1.5e-7 2.1166667,2.1166667 0 0 1 8.4666668,-2.1166664 Z" />
    <path
       id="path3998"
       style="fill:#440066;fill-opacity:1;fill-rule:evenodd;stroke-width:0.661461;stroke-miterlimit:10;-inkscape-stroke:none;stop-color:#000000"
       d="M 8.4666668,-5.2916664 A 5.2916663,5.2916663 0 0 0 3.1750002,-1.5e-7 5.2916663,5.2916663 0 0 0 8.4666668,5.2916665 5.2916663,5.2916663 0 0 0 13.758333,-1.5e-7 5.2916663,5.2916663 0 0 0 8.4666668,-5.2916664 Z m 0,2.116666 A 3.175,3.175 0 0 1 11.641667,-1.5e-7 3.175,3.175 0 0 1 8.4666668,3.1749995 3.175,3.175 0 0 1 5.2916668,-1.5e-7 a 3.175,3.175 0 0 1 3.175,-3.17500025 z" />
    <rect
       style="fill:#ffffff;fill-opacity:1;fill-rule:evenodd;stroke-width:0.661456;stroke-miterlimit:10;-inkscape-stroke:none;stop-color:#000000"
       id="rect4000"
       width="2.9104166"
       height="0.5291667"
       x="-1.2499994e-08"
       y="2.1166666" />
  </g>
</svg>
